<svg width="24" height="25" viewBox="0 0 24 25" fill="none" xmlns="http://www.w3.org/2000/svg">
<g clip-path="url(#clip0_408_9953)">
<path d="M12 0.5C5.3736 0.5 0 5.8736 0 12.5C0 19.1264 5.3736 24.5 12 24.5C18.6264 24.5 24 19.1264 24 12.5C24 5.8736 18.6288 0.5 12 0.5ZM5.9208 12.9032L5.9712 12.8216L9.0936 7.9376C9.1392 7.868 9.2472 7.8752 9.2808 7.952C9.8016 9.1208 10.2528 10.5752 10.0416 11.48C9.9528 11.852 9.7056 12.356 9.4272 12.8216C9.3912 12.8888 9.3528 12.956 9.3096 13.0208C9.2904 13.0496 9.2568 13.0664 9.2208 13.0664H6.012C5.9256 13.0664 5.8752 12.9728 5.9208 12.9032ZM19.8336 14.5832C19.8336 14.6288 19.8072 14.6672 19.7688 14.684C19.5264 14.7872 18.6984 15.1688 18.3552 15.6464C17.4768 16.868 16.8072 18.6152 15.3072 18.6152H9.0528C6.8352 18.6152 5.04 16.8128 5.04 14.588V14.516C5.04 14.4584 5.088 14.4104 5.148 14.4104H8.6328C8.7024 14.4104 8.7528 14.4728 8.748 14.5424C8.7216 14.768 8.7648 15.0008 8.8728 15.212C9.0792 15.632 9.5088 15.8936 9.972 15.8936H11.6976V14.5472H9.9912C9.9048 14.5472 9.852 14.4464 9.9024 14.3744C9.9216 14.3456 9.9408 14.3168 9.9648 14.2832C10.1256 14.0528 10.356 13.6976 10.5864 13.292C10.7424 13.0184 10.8936 12.7256 11.016 12.4328C11.04 12.38 11.0592 12.3248 11.0808 12.272C11.1144 12.1784 11.148 12.0896 11.172 12.0032C11.196 11.9288 11.2176 11.852 11.2368 11.78C11.2944 11.5304 11.3184 11.2664 11.3184 10.9928C11.3184 10.8848 11.3136 10.772 11.304 10.6664C11.2992 10.5488 11.2848 10.4312 11.2704 10.3136C11.2608 10.2104 11.2416 10.1072 11.2224 10.0016C11.196 9.8456 11.1624 9.6896 11.124 9.5336L11.1096 9.4736C11.0808 9.3656 11.0544 9.2648 11.0208 9.1568C10.9224 8.8208 10.812 8.492 10.692 8.1848C10.6488 8.0624 10.6008 7.9448 10.5504 7.8296C10.4784 7.652 10.404 7.4912 10.3368 7.34C10.3008 7.2704 10.272 7.208 10.2432 7.1432C10.2096 7.0712 10.176 6.9992 10.14 6.9296C10.116 6.8768 10.0872 6.8264 10.068 6.7784L9.8568 6.3896C9.828 6.3368 9.876 6.272 9.9336 6.2888L11.2536 6.6464H11.2584C11.2608 6.6464 11.2608 6.6464 11.2632 6.6464L11.436 6.6968L11.628 6.7496L11.6976 6.7688V5.9864C11.6976 5.6072 12 5.3 12.3768 5.3C12.564 5.3 12.7344 5.3768 12.8544 5.5016C12.9768 5.6264 13.0536 5.7968 13.0536 5.9864V7.1504L13.1952 7.1888C13.2048 7.1936 13.2168 7.1984 13.2264 7.2056C13.26 7.2296 13.3104 7.268 13.3728 7.316C13.4232 7.3544 13.476 7.4024 13.5384 7.4528C13.6656 7.556 13.8192 7.688 13.9848 7.8392C14.028 7.8776 14.0712 7.916 14.112 7.9568C14.3256 8.156 14.5656 8.3888 14.796 8.648C14.8608 8.7224 14.9232 8.7944 14.988 8.8736C15.0504 8.9528 15.12 9.0296 15.1776 9.1064C15.2568 9.2096 15.3384 9.3176 15.4128 9.4304C15.4464 9.4832 15.4872 9.5384 15.5184 9.5912C15.6144 9.7328 15.696 9.8792 15.7752 10.0256C15.8088 10.0928 15.8424 10.1672 15.8712 10.2392C15.96 10.436 16.0296 10.6352 16.0728 10.8368C16.0872 10.88 16.0968 10.9256 16.1016 10.9688V10.9784C16.116 11.036 16.1208 11.0984 16.1256 11.1632C16.1448 11.3672 16.1352 11.5736 16.092 11.78C16.0728 11.8664 16.0488 11.948 16.02 12.0368C15.9888 12.1208 15.96 12.2072 15.9216 12.2912C15.8472 12.4616 15.7608 12.6344 15.6576 12.7928C15.624 12.8528 15.5832 12.9152 15.5448 12.9752C15.5016 13.0376 15.456 13.0976 15.4176 13.1552C15.3624 13.2296 15.3048 13.3064 15.2448 13.376C15.192 13.448 15.1392 13.52 15.0792 13.5848C14.9976 13.6832 14.9184 13.7744 14.8344 13.8632C14.7864 13.9208 14.7336 13.9808 14.6784 14.0336C14.6256 14.0936 14.5704 14.1464 14.5224 14.1944C14.4384 14.2784 14.3712 14.3408 14.3136 14.396L14.1768 14.5184C14.1576 14.5376 14.1312 14.5472 14.1048 14.5472H13.0536V15.8936H14.376C14.6712 15.8936 14.952 15.7904 15.18 15.596C15.2568 15.5288 15.5952 15.236 15.996 14.7944C16.0104 14.7776 16.0272 14.768 16.0464 14.7632L19.6968 13.7072C19.7664 13.688 19.8336 13.7384 19.8336 13.8104V14.5832Z" fill="white"/>
</g>
<defs>
<clipPath id="clip0_408_9953">
<rect width="24" height="24" fill="white" transform="translate(0 0.5)"/>
</clipPath>
</defs>
</svg>
