<svg width="24" height="25" viewBox="0 0 24 25" fill="none" xmlns="http://www.w3.org/2000/svg">
<g clip-path="url(#clip0_408_9954)">
<path d="M7.55016 22.25C16.6045 22.25 21.5583 14.7468 21.5583 8.24192C21.5583 8.03098 21.5536 7.81536 21.5442 7.60442C22.5079 6.90752 23.3395 6.04432 24 5.05536C23.1025 5.45466 22.1496 5.71544 21.1739 5.8288C22.2013 5.21297 22.9705 4.24553 23.3391 3.10583C22.3726 3.67862 21.3156 4.08267 20.2134 4.30067C19.4708 3.51162 18.489 2.98918 17.4197 2.81411C16.3504 2.63905 15.2532 2.82111 14.2977 3.33216C13.3423 3.8432 12.5818 4.65477 12.1338 5.64137C11.6859 6.62798 11.5754 7.73468 11.8195 8.79036C9.86249 8.69215 7.94794 8.18377 6.19998 7.29816C4.45203 6.41255 2.90969 5.1695 1.67297 3.64958C1.0444 4.7333 0.852057 6.01571 1.13503 7.23615C1.418 8.4566 2.15506 9.52351 3.19641 10.22C2.41463 10.1952 1.64998 9.98474 0.965625 9.60598V9.66692C0.964925 10.8042 1.3581 11.9066 2.07831 12.7868C2.79852 13.667 3.80132 14.2706 4.91625 14.495C4.19206 14.6932 3.43198 14.7221 2.69484 14.5794C3.00945 15.5575 3.62157 16.413 4.44577 17.0264C5.26997 17.6398 6.26512 17.9807 7.29234 18.0013C5.54842 19.3712 3.39417 20.1142 1.17656 20.1107C0.783287 20.1101 0.390399 20.086 0 20.0385C2.25286 21.4838 4.87353 22.2514 7.55016 22.25Z" fill="white"/>
</g>
<defs>
<clipPath id="clip0_408_9954">
<rect width="24" height="24" fill="white" transform="translate(0 0.5)"/>
</clipPath>
</defs>
</svg>
